<svg width="306" height="42" fill="none" xmlns="http://www.w3.org/2000/svg"><path d="M66.82 35.645a15.01 15.01 0 1 1 14.92-15.012c.014 8.261-6.66 14.975-14.92 15.012ZM66.82 0a20.607 20.607 0 0 0-14.718 35.142A20.609 20.609 0 0 0 87.32 20.61C87.32 9.269 78.159.059 66.819 0M142.947 1.187a.543.543 0 0 0-.462.264L121.357 30.18 100.23 1.451a.544.544 0 0 0-.47-.264.56.56 0 0 0-.56.553v38.273h5.588V17.41l16.24 21.927a.427.427 0 0 0 .659 0l16.239-21.927v22.603h5.589V1.74a.563.563 0 0 0-.568-.553M177.684 20.477H164.66V6.793h13.024a6.834 6.834 0 0 1 0 13.667v.017Zm0-19.306h-18.63v38.826h5.589V26.099h13.025c6.879 0 12.455-5.577 12.455-12.456s-5.576-12.456-12.455-12.456M20.674 35.645A15.012 15.012 0 1 1 32.47 11.46l4.014-3.965a20.608 20.608 0 1 0 0 26.28l-4.014-3.965a14.839 14.839 0 0 1-11.796 5.836M256.383 17.056l-4.278-.973c-4.6-.99-4.946-4.122-4.946-5.102 0-3.174 2.531-4.996 6.941-4.996 4.534 0 7.847 3.075 8.861 4.122l3.932-3.866C263.2 2.366 259.021.47 254.1.47c-7.493 0-12.53 4.212-12.53 10.485 0 1.995 0 8.062 10.073 10.543l4.682 1.105c4.345 1.195 6.455 3.297 6.455 6.413 0 3.652-3.52 6.199-8.548 6.199-5.383 0-8.697-3.701-9.686-4.946l-3.883 3.825c2.646 3.017 7.164 6.594 13.626 6.594 8.054 0 14.129-5.028 14.129-11.689 0-5.968-4.121-10.106-11.994-11.96M293.998 17.056l-4.279-.973c-4.599-.99-4.946-4.122-4.946-5.102 0-3.174 2.531-4.996 6.941-4.996 4.534 0 7.848 3.075 8.854 4.122l3.94-3.866c-3.693-3.875-7.881-5.77-12.794-5.77-7.493 0-12.53 4.212-12.53 10.485 0 1.995 0 8.062 10.074 10.543l4.707 1.08c4.336 1.195 6.446 3.297 6.446 6.413 0 3.652-3.512 6.2-8.54 6.2-5.383 0-8.705-3.702-9.686-4.947l-3.94 3.866c2.646 3.017 7.163 6.595 13.626 6.595 8.054 0 14.129-5.029 14.129-11.69 0-5.967-4.122-10.105-11.994-11.96M206.429 24.442l6.397-12.2 6.405 12.2h-12.802Zm6.397-23.6a.567.567 0 0 0-.511.329l-20.37 38.842h6.323l5.21-9.95h18.687l5.218 9.95h6.315L213.337 1.171a.578.578 0 0 0-.511-.33Z" fill="#1A1A1A"/><path d="m58.007 25.489 3.949 3.973L75.623 15.72l-3.957-3.973L58.008 25.49Z" fill="#1A1A1A"/></svg>