<svg width="75" height="31" fill="none" xmlns="http://www.w3.org/2000/svg"><path fill-rule="evenodd" clip-rule="evenodd" d="M9.679 6.997c-5.237 0-9.6 2.236-9.6 8.983 0 5.344 2.934 8.71 9.735 8.71 8.006 0 8.52-5.308 8.52-5.308h-3.88s-.832 2.858-4.876 2.858c-3.295 0-5.664-2.24-5.664-5.38h14.825v-1.97c0-3.105-1.959-7.893-9.06-7.893Zm-.135 2.518c3.136 0 5.274 1.934 5.274 4.832H4c0-3.077 2.79-4.832 5.544-4.832Z" fill="#333"/><path fill-rule="evenodd" clip-rule="evenodd" d="M18.738.465v20.838c0 1.182-.084 2.843-.084 2.843h3.7s.133-1.192.133-2.283c0 0 1.828 2.879 6.799 2.879 5.234 0 8.79-3.658 8.79-8.898 0-4.874-3.267-8.795-8.782-8.795-5.165 0-6.77 2.807-6.77 2.807V.465h-3.786Zm9.6 9.161c3.555 0 5.816 2.655 5.816 6.218 0 3.82-2.61 6.32-5.79 6.32-3.793 0-5.84-2.98-5.84-6.286 0-3.08 1.837-6.252 5.815-6.252Z" fill="#333"/><path fill-rule="evenodd" clip-rule="evenodd" d="M47.269 6.997c-7.879 0-8.384 4.342-8.384 5.036h3.921s.206-2.535 4.192-2.535c2.59 0 4.598 1.194 4.598 3.488v.816h-4.598c-6.103 0-9.33 1.797-9.33 5.444 0 3.59 2.981 5.542 7.01 5.542 5.491 0 7.26-3.053 7.26-3.053 0 1.214.093 2.41.093 2.41h3.486s-.135-1.483-.135-2.432V13.51c0-5.38-4.31-6.512-8.113-6.512Zm4.327 9.255v1.09c0 1.42-.87 4.95-5.997 4.95-2.806 0-4.01-1.41-4.01-3.045 0-2.975 4.053-2.995 10.007-2.995Z" fill="#333"/><path fill-rule="evenodd" clip-rule="evenodd" d="M53.27 7.68h4.411l6.332 12.766L70.33 7.679h3.996L62.82 30.408h-4.192l3.32-6.336L53.27 7.68Z" fill="#333"/></svg>