<svg width="273" height="42" fill="none" xmlns="http://www.w3.org/2000/svg"><path d="M268 11.501c0-1.25.94-2.19 2.15-2.19 1.19 0 2.14.94 2.14 2.19 0 1.27-.94 2.21-2.14 2.21-1.21 0-2.15-.94-2.15-2.21Zm2.15 2.65c1.44 0 2.67-1.12 2.67-2.65 0-1.51-1.23-2.63-2.67-2.63-1.45 0-2.68 1.12-2.68 2.63 0 1.53 1.23 2.65 2.68 2.65Zm-.55-2.44h.53l.8 1.32h.52l-.86-1.34c.44-.05.79-.29.79-.84 0-.6-.35-.87-1.07-.87h-1.16v3.04h.47v-1.31h-.02Zm0-.39v-.94h.63c.32 0 .66.07.66.45 0 .47-.35.49-.74.49h-.55ZM17.24 26.451c-.17.63-.41.75-.79.75H4.68v-16.09c0-.42.11-.64.73-.81l.2-.06v-1H0v.99l.21.06c.62.16.73.39.73.81v17.5c0 .41-.11.64-.73.81l-.21.05v1h16.45c.42 0 .62.1.79.75l.05.21h.98v-5.18h-.98l-.05.21ZM62.36 27.121l-.04-.09-6.64-15.73c-.21-.49-.23-.57-.23-.64 0-.16 0-.25.47-.38l.2-.06v-.98h-5.95v1l.21.06c.45.1.45.19.45.31 0 .11-.05.24-.23.7l-6.55 16.31c-.67 1.6-.84 1.68-1.39 1.78l-.23.04v1.02h5.34v-1.02l-.23-.04c-.56-.09-.56-.19-.56-.31 0-.15 0-.16.2-.67l1.31-3.32h9.31l1.31 3.11c.19.46.28.68.28.82 0 .08 0 .3-.55.37l-.25.03v1.03h5.7v-1l-.21-.05c-.89-.21-.89-.21-1.72-2.29Zm-5.92-5.28h-6.66c.26-.66 2.83-7.15 3.25-8.2.43 1.06 3.13 7.54 3.41 8.2ZM116.7 31.211c-.17-.59-.36-.75-.91-.75H96.88v-1.16s13.13-15.93 13.85-16.8H99.46c-.47 0-.74.12-.91.76l-.06.2h-1.03v-4.35c-13.17 9.43-20.1 22.33-15.49 28.96 4.65 6.69 19.27 4.45 32.67-5 .76-.54 1.5-1.09 2.23-1.65h-.11l-.06-.21Zm13.78-27.36c-4.57-6.57-18.77-4.52-31.97 4.52l.04.11c.17.58.38.76.91.76h18.3v.82s-13.37 16.27-14.09 17.14h12.12c.47 0 .73-.12.91-.75l.06-.21h1.03v4.45c11.32-9.17 16.96-20.7 12.69-26.84ZM167.22 19.261c1.86-.88 2.7-2.24 2.7-4.31 0-1.8-.77-3.44-2.06-4.38-1.31-.94-3-1.32-5.81-1.32h-12.94v.97l.21.06c.64.16.75.36.75.75v17.74c0 .3-.06.53-.75.72l-.21.05v.94h13.13c2.96 0 4.6-.4 6.06-1.45 1.5-1.08 2.26-2.67 2.26-4.72.01-2.48-1.12-4.16-3.34-5.05Zm-13.46 1.69h8.02c3.44 0 4.85.9 4.85 3.12 0 2.19-1.45 3.12-4.85 3.12h-8.02v-6.24Zm11.34-3.8c-.7.41-1.5.55-3.29.55h-8.05v-5.2h8.05c1.87 0 2.62.12 3.28.55.64.39 1.01 1.14 1.01 2.04.01.92-.36 1.67-1 2.06ZM214.41 11.281c-2.06-1.6-4.62-2.41-7.61-2.41-3.3 0-5.74.74-7.91 2.41-2.53 1.95-4.1 5.24-4.1 8.58 0 3.35 1.53 6.54 4.1 8.55 2.05 1.63 4.59 2.42 7.76 2.42s5.71-.79 7.76-2.42c2.57-2.04 4.11-5.24 4.11-8.55-.01-3.35-1.54-6.56-4.11-8.58Zm-7.76 16.2c-4.82 0-7.93-2.99-7.93-7.62 0-4.57 3.14-7.64 7.81-7.64 2.65 0 4.52.71 6.07 2.3 1.31 1.38 1.98 3.18 1.98 5.34-.01 4.56-3.19 7.62-7.93 7.62ZM264.54 9.241h-6.21v1l.21.05c.44.11.44.17.44.25 0 .21-.19.56-.6 1.1 0 0-3.86 5.43-4.85 6.81-.41-.57-4.78-6.56-4.78-6.56-.46-.62-.66-1.02-.66-1.29 0-.16 0-.21.49-.31l.22-.05v-1h-6.67v1.01l.22.04c.73.13.75.14 2.36 2.19 0-.01 6.21 8.48 6.76 9.23v6.88c0 .41-.11.64-.74.81l-.21.05v1h5.72v-1l-.21-.05c-.64-.17-.75-.4-.75-.81v-6.88c.11-.14 6.83-9.24 6.83-9.24 1.51-1.9 1.74-2.1 2.45-2.18l.25-.03v-1.02h-.27Z" fill="#1A1A1A"/></svg>