<svg width="196" height="59" fill="none" xmlns="http://www.w3.org/2000/svg"><path d="M138.686 12.036v6.018a.508.508 0 0 1-.472.472h-10.378c-.236 0-.471-.236-.471-.472v-6.018c0-.236.235-.472.471-.472h10.378c.236 0 .472.236.472.472Zm-.708 8.496H117.93c-.236 0-.589.236-.707.472l-2.595 9.794-.118.472-3.066-10.502c-.118-.236-.354-.472-.708-.472h-7.783c-.236 0-.59.236-.708.472l-2.948 9.794-.118.472-.118-.472-1.297-4.838-1.297-4.838c-.118-.236-.354-.472-.708-.472H80.075v-8.496c0-.236-.354-.59-.708-.472l-9.906 3.068c-.354.118-.472.236-.472.472v5.31h-2.594c-.236 0-.472.236-.472.472v7.552c0 .236.236.472.472.472h2.594v9.204c0 6.49 3.538 9.558 10.024 9.558 2.713 0 5.307-.59 7.076-1.534v-7.788c0-.354-.354-.472-.59-.472-1.061.472-1.886.59-2.83.59-1.769 0-2.712-.708-2.712-2.714V28.91h5.66a.507.507 0 0 0 .472-.472v-6.372l7.43 24.662c.118.236.353.472.707.472h8.137c.236 0 .59-.236.708-.472l3.538-10.974 1.769 5.664 1.651 5.192c.118.236.354.472.707.472h8.256c.235 0 .589-.236.707-.472l7.548-24.78v24.78c0 .236.236.472.471.472h10.024a.508.508 0 0 0 .472-.472V21.122c.354-.354.118-.59-.236-.59Zm13.209-8.968h-10.025c-.235 0-.471.236-.471.472v34.81c0 .236.236.472.471.472h10.025c.235 0 .471-.236.471-.472v-34.81c.118-.236-.118-.472-.471-.472Zm13.444 0h-10.378a.508.508 0 0 0-.472.472v6.018c0 .236.236.472.472.472h10.378c.235 0 .471-.236.471-.472v-6.018c0-.236-.236-.472-.471-.472Zm-.236 8.968h-10.024a.508.508 0 0 0-.472.472v25.842c0 .236.236.472.472.472h10.024c.236 0 .471-.236.471-.472V21.122c.118-.354-.118-.59-.471-.59ZM196 33.748c0 7.67-6.25 14.042-15.095 14.042-8.727 0-14.977-6.372-14.977-13.924v-.118c0-7.552 6.25-14.042 15.095-14.042C189.75 19.942 196 26.314 196 33.748Zm-10.614.118c0-2.596-2.005-4.72-4.363-4.72-2.477 0-4.246 2.124-4.246 4.602v.118c0 2.596 2.005 4.72 4.364 4.72 2.358 0 4.245-2.006 4.245-4.72ZM58.966 29.5c0 16.284-13.21 29.5-29.483 29.5C13.208 59 0 45.784 0 29.5S13.208 0 29.483 0c16.274 0 29.482 13.216 29.482 29.5Zm-7.666 0A21.648 21.648 0 0 0 29.6 7.788 21.649 21.649 0 0 0 7.901 29.5a21.649 21.649 0 0 0 21.7 21.712c11.91 0 21.699-9.676 21.699-21.712Zm-14.388-1.18a6.092 6.092 0 0 0 6.133-6.136 6.092 6.092 0 0 0-6.133-6.136 6.092 6.092 0 0 0-6.132 6.136 6.092 6.092 0 0 0 6.132 6.136Zm0 14.632a6.092 6.092 0 0 0 6.133-6.136 6.092 6.092 0 0 0-6.133-6.136 6.092 6.092 0 0 0-6.132 6.136 6.092 6.092 0 0 0 6.132 6.136Zm-14.741 0a6.092 6.092 0 0 0 6.132-6.136 6.092 6.092 0 0 0-6.132-6.136 6.092 6.092 0 0 0-6.133 6.136 6.092 6.092 0 0 0 6.133 6.136Zm0-14.632a6.092 6.092 0 0 0 6.132-6.136 6.092 6.092 0 0 0-6.132-6.136 6.092 6.092 0 0 0-6.133 6.136c0 3.304 2.713 6.136 6.133 6.136Z" fill="#1A1A1A"/></svg>